<svg width="29" height="36" viewBox="0 0 29 36" fill="none" xmlns="http://www.w3.org/2000/svg">
<path d="M14.6426 1.01575L14.5 1L1 2.40733V27.0129L14.5 35L28 27.0129V2.40733L14.6426 1.01575ZM26.2344 26.0151L14.5 32.9573L2.76561 26.0151V15.9293L14.4507 22.8451L14.4701 24.0984L6.45351 19.3548L6.44295 20.5801L14.4894 25.3885L14.5088 26.675L6.46408 21.9174L6.45351 23.1427L14.5 27.9511L22.6239 23.1182V21.8929V17.909L26.2432 15.7595L26.2344 26.0151ZM26.2344 14.4519L23.0147 16.3319L21.5325 17.2071L14.4666 13.0201L14.456 14.2454L20.4957 17.818L20.4429 17.8495L20.3126 17.9247L19.4536 18.4166L14.4666 15.4689L14.456 16.6942L18.3921 19.0222L17.4591 19.6314L17.438 19.6436L14.4666 17.902L14.456 19.1273L16.4029 20.2615L14.4155 21.4483L2.7973 14.5762L14.4349 7.61831L26.2344 14.4519ZM26.2344 13.2266L14.4401 6.31075L2.76561 13.2196V3.9897L14.5 2.76442L26.2344 3.9897V13.2266Z" fill="#D22856" stroke="black" stroke-miterlimit="10"/>
</svg>
